<?xml version="1.0" encoding="utf-8"?>
<!-- Generator: Adobe Illustrator 26.0.3, SVG Export Plug-In . SVG Version: 6.00 Build 0)  -->
<svg version="1.0" id="Layer_1" xmlns="http://www.w3.org/2000/svg" xmlns:xlink="http://www.w3.org/1999/xlink" x="0px" y="0px"
	 viewBox="0 0 671.3 484.1" style="enable-background:new 0 0 671.3 484.1;" xml:space="preserve">
<style type="text/css">
	.st0{fill:#1F074F;}
	.st1{fill:#04AB61;}
	.st2{fill:#FBB016;}
</style>
<g>
	<g>
		<path class="st0" d="M225.6,243.9c-3.6-3-8.5-4.5-14.9-4.5h-21.4v55.7h11V279h7.7c3.4,0.1,6.8-0.5,10-1.7c2.7-1.1,5.1-2.8,7-4.9
			c1.8-2,3.3-4.4,4.1-7c0.9-2.7,1.4-5.5,1.3-8.3C230.7,251.3,229,246.9,225.6,243.9z M218.4,263.6c-0.8,1.9-2.1,3.5-3.8,4.7
			c-2,1.2-4.4,1.8-6.8,1.7h-7.6v-21.2h10.2c2.4-0.1,4.7,0.5,6.6,1.9c1.7,1.3,2.6,3.4,2.6,6.4C219.8,259.4,219.3,261.6,218.4,263.6z"
			/>
		<path class="st0" d="M274.5,283.8v-14c0.1-3.1-0.4-6.2-1.5-9.1c-0.9-2.2-2.3-4.1-4.2-5.5c-1.9-1.4-4.1-2.3-6.4-2.6
			c-2.6-0.6-5.3-0.8-7.9-0.8c-2.3,0-4.7,0.2-7,0.6c-2.1,0.3-4.2,0.8-6.2,1.5v8.7h0.8c1.6-0.7,3.2-1.2,4.9-1.5c2-0.4,4.1-0.7,6.2-0.8
			c2-0.1,4.1,0.2,6,0.8c1.5,0.4,2.8,1.3,3.6,2.6c0.9,1.9,1.4,3.9,1.3,6v0.8l-2.3-0.6c-1.9-0.4-3.9-0.6-5.9-0.6
			c-3.3,0-6.5,0.5-9.6,1.5c-2.5,0.8-4.7,2.3-6.4,4.4c-1.6,2.2-2.4,4.9-2.2,7.6c0,4.7,1.7,8.1,4.9,10.4c3.2,2.1,8.1,3.2,14.5,3.2
			c1.9,0,4-0.2,6.1-0.4c2.1-0.2,4.2-0.6,6.2-1.1c2.1-0.6,4-1.1,5.7-1.7l0.2-0.6c-0.3-1.2-0.4-2.5-0.4-3.8
			C274.6,287.2,274.4,285.5,274.5,283.8z M262,288.1c-1.7,0.3-3.4,0.4-5.1,0.4c-3,0-5.3-0.4-6.8-1.3c-1.6-1-2.5-2.7-2.4-4.5
			c0-2.3,0.8-3.8,2.4-4.7s4.2-1.3,7.6-1.3c1.6,0,3.2,0.2,4.7,0.4c0.6,0.2,1.1,0.2,1.7,0.4v6.2c0,0.8,0.2,1.5,0.2,2.3
			c0,0.6,0.2,1.2,0.4,1.7C263.5,287.8,262.8,287.9,262,288.1z"/>
		<polygon class="st0" points="302.6,282.5 292.8,252.8 281.3,252.8 281.3,253.7 297.3,296.1 290.5,312.3 290.5,313.1 301.3,313.1 
			324.4,253.7 324.4,252.8 313.4,252.8 		"/>
		<path class="st0" d="M390.7,255.4c-1.8-1.3-3.9-2.3-6-2.8c-2.4-0.5-4.8-0.8-7.2-0.8c-2.6,0-5.2,0.4-7.8,1
			c-2.1,0.5-4.2,1.2-6.2,2.1c-1.6-1-3.3-1.7-5.1-2.1c-2.3-0.6-4.6-0.9-7-1c-2.2,0-4.4,0.2-6.6,0.6c-2.3,0.4-4.5,0.8-6.6,1.3
			c-2.1,0.6-4,1.1-5.5,1.7l-0.2,0.6c0.2,1.2,0.4,2.5,0.4,3.8c0.2,1.6,0.2,3.1,0.2,4.7v30.4h10.8v-28c0-1.5,0-2.9-0.2-4.4
			c0-0.3-0.1-0.6-0.2-0.9c0.6-0.2,1.3-0.4,2.1-0.6c1.5-0.4,3.1-0.6,4.7-0.6c1.7,0,3.3,0.3,4.9,1c1.5,0.6,2.7,1.7,3.4,3.2
			c0.9,2,1.4,4.2,1.3,6.4v24h10.8v-24.4c0.1-3-0.4-6-1.5-8.9c0.9-0.3,1.9-0.6,2.8-0.8c1.3-0.3,2.7-0.4,4-0.4c1.8,0,3.6,0.3,5.3,1
			c1.5,0.6,2.7,1.7,3.4,3.2c0.9,2,1.3,4.2,1.1,6.4v24h10.8v-24.6c0.1-3.2-0.4-6.4-1.5-9.4C394.1,259,392.6,257,390.7,255.4z"/>
		<path class="st0" d="M440,254.9c-3.5-2.1-7.5-3.1-11.5-3c-3.8-0.1-7.6,0.8-11,2.6c-3.1,1.8-5.6,4.4-7.2,7.5
			c-1.8,3.6-2.7,7.6-2.6,11.7c-0.1,3.4,0.5,6.7,1.7,9.8c1,2.6,2.7,5,4.9,6.8c2.3,1.8,4.9,3.2,7.8,4c3.4,1,6.9,1.4,10.4,1.3
			c2.5,0,4.9-0.2,7.4-0.6c1.8-0.3,3.6-0.8,5.3-1.5v-8.7h-0.8c-1.5,0.7-3,1.3-4.5,1.7c-2.2,0.5-4.4,0.7-6.6,0.8
			c-2.5,0-5.1-0.4-7.5-1.2c-2-0.7-3.8-2.1-5.1-3.8c-1-1.5-1.6-3.3-1.7-5.1h29.1v-2.6c0.3-4-0.3-8-1.7-11.7
			C445.2,259.6,443,256.7,440,254.9z M437.3,270.2h-18.5c0.1-1.7,0.5-3.3,1.1-4.9c0.7-1.6,1.9-3,3.4-4c1.6-0.8,3.3-1.3,5.1-1.3
			c3,0,5.3,0.8,6.6,2.5c1.5,1.7,2.3,4,2.3,7.2L437.3,270.2z"/>
		<path class="st0" d="M491.9,255.6c-2-1.3-4.1-2.3-6.4-2.8c-2.5-0.6-5-0.9-7.5-1c-2.2,0-4.4,0.2-6.6,0.6c-2.3,0.4-4.5,0.8-6.6,1.3
			s-4,1.1-5.5,1.7l-0.2,0.6c0.2,1.2,0.4,2.5,0.4,3.8c0.2,1.6,0.2,3.1,0.2,4.7v30.4h10.8v-28c0-1.5,0-2.9-0.2-4.4
			c0-0.3-0.1-0.6-0.2-0.9c0.6-0.2,1.3-0.4,2.1-0.6c1.5-0.4,3.1-0.6,4.7-0.6c1.9,0,3.7,0.3,5.5,1c1.5,0.6,2.8,1.8,3.6,3.2
			c0.9,2,1.4,4.2,1.3,6.4v24H498v-24.4c0.1-3.2-0.5-6.4-1.7-9.4C495.5,259,494,257,491.9,255.6z"/>
		<path class="st0" d="M534,286.6c-0.9,0.2-1.9,0.3-2.8,0.4c-2.7,0-4.6-0.6-5.7-1.7c-1.4-1.6-2-3.6-1.9-5.7v-18.1h11.5v-8.7h-11.5
			v-11h-10.8v11h-6.8v8.7h6.8v18.9c-0.2,3,0.5,6,1.9,8.7c1.3,2.3,3.4,4,5.9,5c3,1.2,6.2,1.8,9.5,1.7c1.4,0,2.8-0.1,4.2-0.4
			c1.1-0.2,2.2-0.5,3.2-0.9v-8.7h-0.8C535.9,286.2,535,286.5,534,286.6z"/>
		<path class="st0" d="M572.2,272.3c-2.1-1-4.3-1.6-6.6-1.9l-3.6-0.6c-1.8-0.3-3.6-0.8-5.3-1.5c-1.1-0.5-1.8-1.6-1.7-2.8
			c-0.1-1.6,0.9-3.1,2.5-3.6c2.2-0.8,4.5-1.2,6.8-1.1c1.9,0,3.8,0.2,5.7,0.4c1.9,0.4,3.8,1,5.7,1.7h0.6v-8.9c-1.8-0.6-3.6-1-5.5-1.1
			c-2-0.3-4-0.4-6-0.4c-4.7,0-8.7,0.6-11.5,1.9c-2.6,0.9-4.8,2.6-6.4,4.9c-1.3,2-2.1,4.4-2.1,6.8c0,3.6,1.1,6.2,3.4,7.9
			c2.8,1.9,6.1,3.2,9.5,3.8l3.6,0.6c1.9,0.2,3.7,0.7,5.5,1.5c1.1,0.5,1.8,1.7,1.7,3c0,1-0.3,1.9-1,2.6c-0.6,0.7-1.4,1.2-2.3,1.3
			l-2.8,0.6h-2.8c-2.6,0.1-5.1-0.3-7.6-1c-2.2-0.5-4.3-1.2-6.4-2.1h-0.6v9.2c4.5,1.4,9.3,2.1,14,2.1c6.8,0,11.7-1.1,15.1-3.4
			c3.4-2.3,5.1-5.7,5.1-10.2c0.1-2.2-0.5-4.4-1.7-6.2C575.8,274.4,574.1,273.2,572.2,272.3z"/>
		<path class="st0" d="M245,227.7c4.3,2.3,9.8,3.4,16.4,3.4c2.3,0,4.7-0.2,7-0.6c1.8-0.3,3.6-0.9,5.3-1.7V219H273
			c-1.6,0.8-3.2,1.4-4.9,1.9c-2,0.4-4,0.6-6,0.6c-3.6,0.1-7.2-0.7-10.4-2.3c-2.7-1.4-5-3.7-6.4-6.4c-1.5-2.8-2.1-6.4-2.1-10.6
			c-0.1-3.6,0.6-7.1,2.1-10.4c1.4-2.8,3.7-5.1,6.4-6.6c3.2-1.6,6.8-2.4,10.4-2.3c2,0,4,0.2,6,0.8c1.7,0.3,3.4,0.9,4.9,1.7h0.8v-9.4
			c-1.7-0.8-3.5-1.3-5.3-1.7c-2.3-0.4-4.7-0.6-7-0.6c-6.4,0-11.9,1.1-16.4,3.6c-4.2,2.3-7.7,5.8-10,10c-2.4,4.7-3.5,9.9-3.4,15.1
			c-0.1,5.4,1,10.7,3.4,15.5C237.3,222,240.8,225.5,245,227.7z"/>
		<path class="st0" d="M288.3,228c3.2,2.1,8.1,3.2,14.5,3.2c1.9,0,4-0.2,6-0.4c2.1-0.2,4.2-0.6,6.2-1.1c2.1-0.6,4-1.1,5.7-1.7
			l0.2-0.6c-0.3-1.2-0.4-2.5-0.4-3.8c-0.1-1.6-0.2-3.2-0.2-4.7V205c0.1-3.1-0.4-6.2-1.5-9.1c-0.8-2.2-2.3-4.1-4.1-5.5
			c-1.9-1.4-4.1-2.3-6.4-2.6c-2.6-0.5-5.3-0.8-7.9-0.8c-2.3,0-4.7,0.2-7,0.6c-2.1,0.3-4.2,0.8-6.2,1.5v8.7h0.8
			c1.6-0.7,3.2-1.2,4.9-1.5c2.1-0.4,4.1-0.7,6.2-0.8c2-0.1,4.1,0.2,6,0.8c1.5,0.4,2.8,1.3,3.6,2.6c0.9,1.9,1.4,3.9,1.3,6v0.8
			l-2.3-0.6c-1.9-0.4-3.9-0.6-5.9-0.6c-3.3,0-6.5,0.5-9.6,1.5c-2.5,0.8-4.7,2.3-6.4,4.3c-1.6,2.2-2.3,4.9-2.2,7.6
			C283.4,222.6,285.1,226,288.3,228z M295.8,212.9c1.7-0.9,4.1-1.3,7.5-1.3c1.6,0,3.2,0.2,4.7,0.4c0.6,0.2,1.1,0.2,1.7,0.4v6.2
			c0,0.8,0.2,1.5,0.2,2.3c0,0.6,0.2,1.2,0.4,1.7c-0.8,0.2-1.5,0.6-2.3,0.8c-1.7,0.3-3.4,0.4-5.1,0.4c-3,0-5.3-0.4-6.8-1.3
			c-1.6-1-2.5-2.7-2.5-4.5C293.6,215.4,294.3,213.9,295.8,212.9L295.8,212.9z"/>
		<path class="st0" d="M352.1,221.8l-2.8,0.6h-2.8c-2.5,0-5.1-0.3-7.6-0.9c-2.2-0.5-4.3-1.2-6.4-2.1h-0.6v9.1
			c2.2,0.7,4.4,1.2,6.6,1.5c2.4,0.4,4.9,0.6,7.4,0.6c6.8,0,11.7-1.1,15.1-3.4s5.1-5.7,5.1-10.2c0.1-2.2-0.5-4.4-1.7-6.2
			c-1.2-1.7-2.8-3.1-4.7-4c-2.1-1-4.3-1.6-6.6-1.9l-3.6-0.6c-1.8-0.3-3.6-0.8-5.3-1.5c-1.1-0.5-1.8-1.6-1.7-2.8
			c-0.1-1.6,0.9-3.1,2.5-3.6c2.2-0.8,4.5-1.2,6.8-1.1c1.9,0,3.8,0.2,5.7,0.4c1.9,0.4,3.8,1,5.7,1.7h0.6v-8.9c-1.8-0.6-3.6-1-5.5-1.1
			c-2-0.3-4-0.4-6-0.4c-4.7,0-8.7,0.6-11.5,1.9c-2.6,0.9-4.8,2.6-6.4,4.9c-1.3,2-2.1,4.4-2.1,6.8c0,3.6,1.1,6.2,3.4,7.9
			c2.8,2,6.1,3.2,9.4,3.8l3.6,0.6c1.9,0.2,3.7,0.7,5.5,1.5c1.1,0.5,1.8,1.7,1.7,3c0,1-0.3,1.9-0.9,2.6
			C354.2,220.8,353.2,221.5,352.1,221.8z"/>
		<path class="st0" d="M415,230.3v-24.4c0.1-3-0.3-6-1.3-8.9c-0.8-2.2-2.1-4.2-3.8-5.9c-1.6-1.5-3.5-2.6-5.7-3.2
			c-2.3-0.7-4.6-1-7-0.9c-2.2-0.1-4.5,0.2-6.6,0.8c-1,0.2-1.9,0.5-2.8,0.9v-17.4h-11.3l-0.2,0.6c0.3,1.2,0.4,2.5,0.4,3.8
			c0.2,1.6,0.2,3.2,0.2,4.7v49.7h10.8V197h0.2c0.9-0.2,2.1-0.6,3.2-0.8c1.1-0.2,2.3-0.3,3.4-0.4c1.7,0,3.5,0.3,5.1,0.9
			c1.5,0.6,2.7,1.7,3.4,3.2c0.9,2,1.4,4.2,1.3,6.4v23.8L415,230.3z"/>
		<path class="st0" d="M448.1,171c-3.3-0.1-6.6,0.5-9.6,1.9c-2.5,1.2-4.6,3.2-6,5.7c-1.5,2.9-2.2,6.2-2.1,9.4h-6.8v8.7h6.8v33.6
			h10.8v-33.7h10.8V188h-10.8c0-3,0.6-5.1,1.7-6.4c1.1-1.5,3.2-2.1,5.9-2.1c1,0,1.9,0.1,2.8,0.4c0.8,0.2,1.5,0.4,2.1,0.6h0.8V172
			c-0.9-0.4-1.9-0.6-2.8-0.8C450.4,171,449.2,171,448.1,171z"/>
		<path class="st0" d="M460,199.3v31h10.8v-28.2c0-1.8-0.1-3.5-0.4-5.3c0.6-0.2,1.1-0.2,1.9-0.4c1.6-0.2,3.3-0.4,4.9-0.4
			c0.9,0,1.9,0,2.8,0.2c0.9,0,1.8,0.1,2.6,0.4h0.8v-8.9c-1.1-0.2-2.1-0.2-3.2-0.4h-3c-2.1,0-4.3,0.2-6.4,0.4c-2,0.2-4.1,0.5-6,0.9
			c-1.9,0.4-3.6,0.9-5.1,1.3l-0.2,0.6c0.3,1.2,0.4,2.5,0.4,3.8C459.8,196.1,460,197.6,460,199.3z"/>
		<path class="st0" d="M521.8,230.5c1.8-0.3,3.6-0.8,5.3-1.5v-8.7h-0.8c-1.5,0.7-3,1.3-4.5,1.7c-2.2,0.5-4.4,0.7-6.6,0.8
			c-2.6,0-5.1-0.3-7.6-1.1c-2-0.8-3.8-2.1-5.1-3.8c-1-1.5-1.6-3.3-1.7-5.1h29.1v-2.6c0.3-4-0.3-8-1.7-11.7c-1.2-3.3-3.5-6.2-6.4-8.1
			c-3.5-2.1-7.5-3.1-11.5-3c-3.8-0.1-7.6,0.8-11,2.6c-3.1,1.8-5.6,4.4-7.2,7.6c-1.8,3.6-2.7,7.6-2.6,11.7c-0.1,3.4,0.5,6.7,1.7,9.8
			c1,2.7,2.7,5,4.9,6.8c2.3,1.8,4.9,3.2,7.8,4c3.4,0.9,6.9,1.3,10.4,1.2C516.7,231.1,519.3,230.9,521.8,230.5z M505.5,196.3
			c1.6-0.8,3.3-1.3,5.1-1.3c3,0,5.3,0.8,6.6,2.5c1.5,1.7,2.3,4,2.3,7.2v0.4H501c0.1-1.7,0.5-3.3,1.1-4.9
			C502.8,198.5,504,197.1,505.5,196.3z"/>
		<path class="st0" d="M577.7,198c-1.2-3.3-3.4-6.2-6.4-8.1c-3.5-2.1-7.5-3.1-11.5-3c-3.8-0.1-7.6,0.8-11,2.6
			c-3,1.8-5.5,4.4-7.1,7.5c-1.8,3.6-2.7,7.6-2.6,11.7c-0.1,3.4,0.5,6.7,1.7,9.8c1,2.6,2.7,5,4.9,6.8c2.3,1.8,4.9,3.2,7.7,4
			c3.4,1,6.9,1.4,10.4,1.3c2.5,0,4.9-0.2,7.4-0.6c1.8-0.3,3.6-0.8,5.3-1.5v-8.7h-0.8c-1.5,0.7-3,1.3-4.5,1.7
			c-2.2,0.5-4.4,0.7-6.6,0.8c-2.6,0-5.1-0.3-7.6-1.1c-2-0.7-3.8-2.1-5.1-3.8c-1-1.5-1.6-3.3-1.7-5.1h29.1v-2.6
			C579.6,205.8,579.1,201.8,577.7,198z M568.8,205.2h-18.5c0.1-1.7,0.5-3.3,1.1-4.9c0.7-1.6,1.9-3,3.4-4c1.6-0.8,3.3-1.3,5.1-1.3
			c3,0,5.3,0.8,6.6,2.5c1.5,1.7,2.3,4,2.3,7.2L568.8,205.2L568.8,205.2z"/>
	</g>
	<path class="st1" d="M139.8,171.8c-11.2,0-20.3,9-20.4,20.2h75.4c11.3,0,20.4-9.1,20.4-20.4h-75.4V171.8z"/>
	<path class="st1" d="M119.4,192c0-11.3,9.1-20.4,20.4-20.4l0,0v75.4c0,11.3-9.1,20.4-20.4,20.4l0,0L119.4,192z"/>
	<path class="st2" d="M146.2,198.8v20.4h23.6c11.3,0,20.4-9.1,20.4-20.4H146.2L146.2,198.8z"/>
	<path class="st2" d="M92,219.2c0-11.3,9.1-20.4,20.4-20.4l0,0v75.4c0,11.3-9.1,20.4-20.4,20.4l0,0V219.2z"/>
</g>
</svg>
