<?xml version="1.0" encoding="UTF-8"?>
<svg id="katman_1" data-name="katman 1" xmlns="http://www.w3.org/2000/svg" version="1.1" viewBox="0 0 180.2 47.29">
  <defs>
    <style>
      .cls-1 {
        fill: #131a2d;
      }

      .cls-1, .cls-2, .cls-3 {
        stroke-width: 0px;
      }

      .cls-2 {
        fill: none;
      }

      .cls-3 {
        fill: #fdd535;
      }
    </style>
  </defs>
  <g id="logo_horizontal" data-name="logo horizontal">
    <g id="LOGO_horizontal-2" data-name="LOGO horizontal-2">
      <path id="Path_43" data-name="Path 43" class="cls-3" d="M44.16,23.53c-.39-1.99-2.32-3.3-4.32-2.91,0,0,0,0,0,0l-2.63.52s-.03,0-.05,0c-.08,0-.16-.05-.19-.13-.04-.08-.03-.17.03-.23l1.84-2.3c.22-.27.39-.58.53-.9.73-1.83-.16-3.9-1.98-4.63-.02,0-.04-.01-.06-.02-.4-.15-.82-.23-1.25-.23-1.47.01-2.79.91-3.34,2.28l-3.4,8.5c-.07.18-.12.36-.15.55-.18,1.28.72,2.46,2,2.64l8.86,1.22c.17.02.33.03.5.03,2.03,0,3.68-1.65,3.68-3.68,0-.24-.02-.47-.07-.71h0Z"/>
      <path id="Path_44" data-name="Path 44" class="cls-1" d="M162.59,28.85c-.69.17-1.42.11-2.07-.17-.62-.24-1.12-.73-1.37-1.35l6.84-1.56c.97-.22,1.58-1.19,1.36-2.15h0c-.28-1.56-1.24-2.9-2.62-3.66-1.37-.72-2.96-.91-4.47-.53-1.57.34-2.95,1.27-3.84,2.61-.95,1.42-1.23,3.19-.77,4.84.3,1.68,1.31,3.16,2.77,4.05,1.46.84,3.19,1.08,4.82.64,1.75-.38,3.28-1.45,4.25-2.96l-2.14-1.47c-.09-.06-.2-.04-.26.05,0,0,0,0,0,0-.57.86-1.47,1.45-2.48,1.65h0ZM159.27,23.13c.43-.5,1.01-.86,1.65-1,.6-.15,1.23-.09,1.78.19.56.31.98.83,1.16,1.45l-5.17,1.18c-.08-.66.13-1.32.58-1.82h0Z"/>
      <path id="Path_45" data-name="Path 45" class="cls-1" d="M150.09,28.85c-.69.17-1.42.11-2.07-.17-.62-.24-1.12-.73-1.37-1.35l6.84-1.56c.97-.22,1.58-1.19,1.36-2.15h0c-.27-1.56-1.24-2.9-2.62-3.66-1.37-.72-2.96-.91-4.47-.53-1.57.34-2.95,1.27-3.84,2.61-.95,1.43-1.23,3.19-.77,4.84.3,1.68,1.31,3.16,2.77,4.05,1.46.84,3.19,1.07,4.82.64,1.75-.38,3.28-1.45,4.25-2.96l-2.14-1.47c-.09-.06-.2-.04-.26.05,0,0,0,0,0,0-.57.86-1.47,1.45-2.48,1.65h0ZM146.77,23.13c.43-.5,1.01-.86,1.65-1,.6-.15,1.23-.09,1.78.19.56.31.98.83,1.16,1.45l-5.17,1.18c-.08-.66.13-1.32.58-1.82h0Z"/>
      <path id="Path_46" data-name="Path 46" class="cls-1" d="M140.89,24.75c-.61-.69-1.43-1.15-2.33-1.32.27-.12.46-.21.56-.26.2-.12.39-.25.56-.39.82-.66,1.27-1.69,1.19-2.75,0-1.02-.37-2-1.06-2.75-.48-.49-1.08-.85-1.74-1.04-.89-.27-1.82-.4-2.75-.38h-5.88c-.13,0-.24.11-.24.24v15.5h6.88c2.16,0,3.67-.49,4.54-1.46.73-.79,1.13-1.83,1.12-2.91.03-.91-.28-1.79-.87-2.49h0ZM132.72,18.84h1.69c.75-.05,1.5.07,2.2.34.47.29.73.84.65,1.39.08.56-.21,1.1-.71,1.36-.7.25-1.43.35-2.17.32h-1.66v-3.4ZM137.38,28.27c-.72.29-1.49.41-2.26.37h-2.41v-3.63h2.07c.86-.05,1.73.07,2.55.35.55.26.87.84.8,1.44.07.6-.23,1.18-.75,1.46h0Z"/>
      <path id="Path_47" data-name="Path 47" class="cls-1" d="M126.77,30.91c-.41.29-.87.5-1.35.61-.55.14-1.12.2-1.69.2-1.29.08-2.56-.34-3.55-1.17-.89-.92-1.35-2.17-1.26-3.45v-5.29h-1.09v-2.87h1.09v-3.03c0-.06.04-.1.1-.1h3.52c.06,0,.1.04.1.1h0v3.03h3.21v2.87h-3.2v5.24c-.03.46.12.91.42,1.26.31.31.74.47,1.18.44.54.02,1.07-.15,1.51-.48l1.01,2.63Z"/>
      <path id="Path_48" data-name="Path 48" class="cls-1" d="M112.38,16.33c-.82-.76-.86-2.04-.1-2.86.03-.04.07-.07.1-.1.46-.41,1.06-.63,1.68-.6.61-.03,1.21.18,1.67.57.42.36.66.88.65,1.43.02.58-.22,1.15-.65,1.54-.46.42-1.06.64-1.67.61-.61.03-1.22-.19-1.68-.6h0ZM112.3,18.72h3.52c.06,0,.1.04.1.1v12.77h-3.73v-12.76c0-.06.04-.1.1-.1h0Z"/>
      <path id="Path_49" data-name="Path 49" class="cls-1" d="M109.56,14v17.58h-3.56v-1.48c-.93,1.14-2.36,1.76-3.83,1.67-1.12.02-2.22-.26-3.21-.79-.95-.52-1.73-1.31-2.25-2.26-1.09-2.14-1.09-4.67,0-6.81.52-.95,1.3-1.74,2.25-2.26.98-.54,2.09-.81,3.21-.79,1.38-.1,2.73.44,3.66,1.47v-6.33c0-.09.07-.16.16-.16h3.41c.09,0,.16.07.16.16h0s0,0,0,0ZM104.9,27.98c1.23-1.51,1.23-3.68,0-5.19-1.28-1.29-3.37-1.29-4.66,0,0,0,0,0,0,0-.64.71-.97,1.65-.92,2.6-.02.94.34,1.85,1,2.52.57.66,1.4,1.04,2.27,1.05.88.02,1.72-.33,2.32-.97h0Z"/>
      <path id="Path_50" data-name="Path 50" class="cls-1" d="M89.91,28.9c-.69.17-1.42.11-2.07-.17-.62-.24-1.12-.73-1.37-1.35l6.84-1.56c.97-.22,1.58-1.18,1.36-2.15,0,0,0,0,0,0-.28-1.55-1.24-2.89-2.62-3.65-1.37-.72-2.96-.91-4.47-.53-1.57.34-2.95,1.27-3.84,2.61-.95,1.42-1.23,3.19-.77,4.84.3,1.68,1.31,3.16,2.77,4.05,1.46.84,3.19,1.08,4.82.64,1.75-.38,3.28-1.45,4.25-2.96l-2.14-1.47c-.09-.06-.2-.04-.26.05,0,0,0,0,0,0-.58.86-1.47,1.45-2.48,1.65h0ZM86.6,23.19c.43-.5,1.01-.86,1.65-1,.6-.15,1.23-.09,1.79.19.56.31.98.83,1.16,1.45l-5.17,1.18c-.08-.66.13-1.32.58-1.82h0Z"/>
      <g id="_Group_" data-name=" Group ">
        <path id="Path_51" data-name="Path 51" class="cls-1" d="M81.68,22.52v-.06c.37-1,.99-1.88,1.81-2.54-1.16-.74-2.64-.75-3.82-.03-.62.32-1.17.74-1.63,1.26v-1.43c0-.09-.08-.17-.17-.17h-3.15c-.1,0-.19.08-.19.18h0v11.93h3.5v-5.25c-.05-1,.21-1.98.74-2.83.51-.72,1.36-1.13,2.25-1.07h.65Z"/>
      </g>
      <g id="_Group_2" data-name=" Group 2">
        <path id="Path_52" data-name="Path 52" class="cls-1" d="M73.3,15.99h-3.81c-.08,0-.16.04-.2.11-.53.83-4.06,6.18-5.63,6.45-.05.01-.11-.02-.12-.08,0,0,0-.01,0-.02v-6.22c0-.13-.1-.23-.23-.23h-3.03c-.13,0-.23.1-.23.23h0v15.48h3.5v-6c0-.09.07-.17.17-.17,0,0,.01,0,.02,0,1.79.32,3.42,1.22,4.64,2.55.97.94,1.48,2.26,1.4,3.61h3.5c-.1-3.28-1.97-6.25-4.88-7.77-.88-.48-.81-.49-.16-1.26,3.42-4,4.75-5.67,5.24-6.31.08-.1.06-.25-.05-.33-.04-.03-.09-.05-.14-.05h.01Z"/>
      </g>
      <g id="Group_1" data-name="Group 1">
        <path id="Path_53" data-name="Path 53" class="cls-2" d="M39.88,21.16l-2.63.52c-.43.08-.84-.2-.92-.62-.04-.23.01-.46.16-.64l1.84-2.3c.18-.23.33-.49.44-.76.61-1.54-.14-3.28-1.68-3.9-.01,0-.03-.01-.04-.02-1.55-.57-3.26.2-3.87,1.73l-3.4,8.5c-.05.13-.09.27-.11.42-.13.97.55,1.87,1.52,2h.03l8.83,1.21c.34.05.69.04,1.02-.03,1.69-.33,2.79-1.97,2.46-3.66-.33-1.69-1.97-2.79-3.66-2.46h0Z"/>
        <path id="Path_54" data-name="Path 54" class="cls-1" d="M20.88,13.07c.72-.42.97-1.34.55-2.06-.42-.72-1.34-.97-2.06-.55-.72.42-.97,1.34-.55,2.06.42.72,1.34.97,2.06.55Z"/>
        <path id="Path_55" data-name="Path 55" class="cls-1" d="M15.85,15.98c.72-.42.97-1.34.55-2.06-.42-.72-1.34-.97-2.06-.55-.72.42-.97,1.34-.55,2.06.42.72,1.34.97,2.06.55Z"/>
        <path id="Path_56" data-name="Path 56" class="cls-1" d="M44.92,9.51c-2.49-4.3-7.96-5.81-12.3-3.39l-.12.07c-.28.16-.54.33-.8.52h-.02c-2.94,2.05-5.07,5.07-5.99,8.53-.06.22-.11.43-.16.65-.07.32-.4.52-.72.45-.05-.01-.09-.03-.14-.05-1.2-.61-2.46-1.1-3.76-1.45-.46-.12-.92-.23-1.39-.32-.72-.14-1.44.28-1.68.97-.16.45-.3.9-.42,1.36-1.31,4.86-.62,10.04,1.9,14.39l.02.04.05.09.06.1c2.78,4.67,7.43,7.92,12.77,8.92.72.14,1.44-.28,1.68-.97.16-.45.3-.9.42-1.36.35-1.29.55-2.61.62-3.95.02-.33.3-.59.63-.57.05,0,.1.01.15.03,3.21,1.02,6.67.94,9.83-.23.72-.2,1.41-.5,2.05-.87.36-.21.7-.43,1.02-.69,3.97-3.08,4.69-8.79,1.62-12.76-1.1-1.43-2.61-2.49-4.32-3.06.48-2.21.11-4.51-1.02-6.47h0ZM43.54,23.63c.33,1.69-.77,3.33-2.46,3.66,0,0,0,0,0,0-.34.06-.68.07-1.02.03l-8.83-1.21h-.03c-.97-.13-1.65-1.03-1.52-2,.02-.14.06-.28.11-.42l3.4-8.5c.6-1.53,2.32-2.3,3.87-1.73,1.55.59,2.32,2.32,1.73,3.87,0,.01-.01.03-.02.04-.11.27-.26.53-.44.76l-1.84,2.3c-.27.34-.22.83.12,1.11.18.14.42.2.64.16l2.63-.51c1.69-.33,3.32.77,3.66,2.46h0Z"/>
      </g>
      <path id="Rectangle_160" data-name="Rectangle 160" class="cls-2" d="M0,0h180.2v47.29H0V0Z"/>
    </g>
  </g>
</svg>