<?xml version="1.0" encoding="utf-8"?>
<!-- Generator: Adobe Illustrator 26.0.3, SVG Export Plug-In . SVG Version: 6.00 Build 0)  -->
<svg version="1.0" id="katman_1" xmlns="http://www.w3.org/2000/svg" xmlns:xlink="http://www.w3.org/1999/xlink" x="0px" y="0px"
	 viewBox="0 0 132.3 101.2" style="enable-background:new 0 0 132.3 101.2;" xml:space="preserve">
<style type="text/css">
	.st0{fill:#FFCA20;}
</style>
<path d="M28.2,63.9c-0.1,1.8-0.5,2.5-2.1,2.5c-1.2,0-0.8,0-2,0c-0.3,0-0.4-0.1-0.4-0.4c0-3.1-0.2-6.3,0.2-9.4
	c0.4-3.5,2.9-5.8,6.7-6.3c0.8-0.1,1.6-0.2,2.4-0.2c0.3,0,0.5,0.1,0.5,0.4c0,1.2,0,2.3,0,3.5c0,0.4-0.1,0.5-0.5,0.5
	c-0.7,0-1.4-0.1-2,0.1c-1.6,0.3-2.5,1.2-2.6,2.7c0,0.3-0.1,0.6-0.1,0.9c0,1.1,0,2.3,0,3.4"/>
<path d="M73.2,64.2c0,1.5-1.1,2.7-2.6,2.7c-1.4,0-2.6-1.1-2.6-2.6c0-3.3,0-6.6,0.1-9.9c0-1.3,1.2-2.4,2.6-2.4c1.4,0,2.5,1.1,2.6,2.4
	c0,1.7,0,3.3,0,5"/>
<path class="st0" d="M63.9,35.4c-1.2-1.1-2.3-2-3.3-2.9c-0.3-0.2-0.5-0.1-0.8,0c-1.2,0.3-2.4-0.2-2.9-1.1c-0.6-0.9-0.4-2,0.5-2.7
	c0.9-0.8,2.4-0.8,3.4-0.1c1,0.7,1.3,1.8,0.6,2.8c-0.2,0.4-0.1,0.5,0.1,0.8c1.2,1,2.3,2,3.5,3c0.2,0.2,0.4,0.2,0.6,0.3
	c0.6,0.2,0.9,0.7,0.8,1.3c-0.1,0.6-0.5,1-1.1,1c-2,0-4,0-6,0c-0.7,0-1.2-0.6-1.2-1.3c0-0.7,0.6-1.2,1.4-1.2c1.1,0,2.3,0,3.4,0
	C63.2,35.4,63.4,35.4,63.9,35.4z"/>
<path class="st0" d="M77.2,35.5c1.5,0,3,0,4.4,0c0.9,0,1.5,0.5,1.5,1.2c0,0.7-0.6,1.2-1.5,1.2c-1.9,0-3.7,0.1-5.6,0
	c-0.7,0-1.1-0.3-1.3-1c-0.1-0.6,0.2-1.1,0.8-1.3c0.2-0.1,0.4-0.2,0.6-0.4c1.1-1,2.2-2.1,3.3-3.1c0.3-0.3,0.4-0.5,0.2-0.8
	c-0.4-1.1-0.1-2.1,0.9-2.7c1-0.6,2.5-0.5,3.3,0.3c0.8,0.7,0.9,1.7,0.4,2.6c-0.5,0.9-1.8,1.5-2.9,1.1c-0.9-0.4-1.3,0-1.8,0.5
	c-0.7,0.7-1.5,1.4-2.3,2.2C77.3,35.3,77.3,35.4,77.2,35.5z"/>
<path class="st0" d="M73.9,35.3c0,1.7-1.6,3-3.5,3c-1.9,0-3.4-1.4-3.5-3c0-1.7,1.6-3.1,3.5-3.1C72.4,32.2,74,33.6,73.9,35.3z"/>
<path d="M54.5,64.7c1.3,1.4,1.8,1.7,2.9,2c3.3,0.8,6.4-0.6,7.8-3.6c0.6-1.3,0.9-2.7,1-4.2c0-0.6,0-1.2,0-1.8
	c0.1-1.8-0.6-3.4-1.7-4.9c-0.5-0.6-1-1.1-1.8-1.2c-2.1-1-4.4-1.3-6.7-0.8c-2.7,0.6-5.1,1.8-5.8,4.7c-0.2,0.7-0.2,1.5-0.2,2.2
	c0,2.4,0,4.9-0.1,7.3c0,2.5,0,5.1-0.1,7.6c0,0.3,0.1,0.4,0.4,0.4c0.6,0,1.3,0,1.9,0c1.2-0.1,2.1-0.9,2.1-2.1L54.5,64.7z M61.2,61.4
	c-0.6,1.2-1.6,1.9-3,1.9c-1.5,0-2.5-0.8-3.1-2c-0.4-0.9-0.5-1.8-0.5-2.7c0.1-1,0.1-2,0.5-2.9c0.6-1.3,1.5-2,3-2.1
	c1.4,0,2.6,0.5,3.2,1.8C62,57.4,62,59.4,61.2,61.4z"/>
<path d="M91.1,47.7c0-1-0.8-1.8-1.9-1.9c-0.6-0.1-1.3,0-1.9-0.1c-0.5,0-0.6,0.1-0.6,0.6c0,1.2,0,2.3,0,3.5c0,0.9,0,1.6,0,2.5
	c-1.2-1.3-2.2-1.9-4.3-2.1c-1.4-0.1-2.7,0.2-3.9,0.8c-0.6,0.3-0.6,0.4-0.8,0.6c-0.9,0.7-1.4,1.6-1.9,2.6c-0.6,1.2-0.9,2.3-0.9,3.6
	c-0.1,1.2,0,2.5,0.3,3.7c0.6,2.4,1.7,4.4,4.5,5.2c1.8,0.5,3.6,0.6,5.4,0.2c3.9-0.9,5.7-2.4,5.9-6.4C91.2,56.2,91.1,52,91.1,47.7z
	 M86.2,61.4c-0.5,1.3-1.5,2-2.9,2.1c-1.4,0.1-2.6-0.5-3.2-1.8c-0.9-1.9-1-4-0.1-5.9c0.6-1.3,1.7-2,3.2-1.9c1.5,0.1,2.5,0.8,3.1,2.2
	c0.3,0.8,0.4,1.6,0.4,2.5C86.6,59.5,86.6,60.5,86.2,61.4z"/>
<path d="M48.7,54.6c0-2-1-3.4-3-4.1c-2.2-0.7-4.5-0.8-6.8-0.4c-2.1,0.4-3.5,1.6-4.1,3.6c-0.1,0.5-0.1,0.7,0.5,0.6c0.8,0,1.6,0,2.3,0
	c0.7,0,1.5,0.2,1.9-0.6c0.1-0.2,0.4-0.2,0.6-0.3c1.2-0.3,2.4-0.2,3.5,0.2c0.5,0.2,0.7,0.5,0.8,0.9c0.1,0.5-0.2,0.8-0.6,1.1
	c-0.6,0.4-1.2,0.5-1.9,0.6c-1.3,0.2-2.7,0.3-4,0.7c-1.3,0.4-2.5,0.9-3.2,2.1c-2,3.3,0,7.1,3.9,7.7c1.4,0.2,2.7,0.1,4.1-0.1
	c3.1-0.4,5.3-2,5.7-4.6c0.2-1.7,0.2-3,0.2-4.3C48.7,56.5,48.7,55.6,48.7,54.6z M44.5,59.6c0,2.6-1.6,4-4.1,3.9
	c-1.1-0.1-1.8-0.6-1.9-1.5c-0.2-1,0.3-1.8,1.2-2.3c0.7-0.3,1.4-0.4,2.2-0.6c0.5-0.1,1-0.2,1.5-0.4C44.5,58.5,44.5,58.5,44.5,59.6z"
	/>
<path class="st0" d="M78.6,51c-2.3,1.5-3.3,3.7-3.5,6.3c0,0.2-0.1,0.4-0.1,0.5c0-1.1,0-2.3,0-3.4c0-2.6-1.4-3.9-4.1-4
	c-1.5-0.1-2.9,0.2-3.8,1.4c-0.5,0.7-0.8,1.4-0.8,2.3c0,1.6,0,3.2,0,4.9c0-1.5-0.1-3-0.6-4.4c-0.6-1.4-1.4-2.7-2.8-3.5
	c0-2.6,0-5.1,0-7.7c0-2.2,1.7-3.9,4-3.9c2.6,0,5.1,0,7.7,0c2.4,0,4.1,1.8,4.1,4C78.6,46,78.6,48.5,78.6,51z"/>
<path d="M107.8,56.8c-0.5-4-3.3-6.4-7.5-6.5c-3.6-0.1-6.3,1.5-7.4,4.5c-0.5,1.3-0.7,2.6-0.7,3.8c0,0.3,0,0.5,0,0.7
	c0.1,1.9,0.4,3.7,1.6,5.3c1.9,2.3,4.5,2.9,7.4,2.6c3.3-0.3,5.4-2.1,6.3-5.2C108,60.2,108.1,58.5,107.8,56.8z M103.6,58.5
	c0,1.1-0.1,2.1-0.5,3c-0.8,2-2.8,2.8-4.7,1.8c-0.7-0.4-1.1-0.9-1.3-1.6c-0.6-1.7-0.7-3.4-0.3-5.1c0.4-1.8,1.7-2.8,3.4-2.7
	c1.5,0,2.8,1.2,3.1,2.9C103.5,57.4,103.6,58,103.6,58.5z"/>
<path d="M68,68.4h1.4c0.7,0,1.1,0.1,1.4,0.3c0.3,0.2,0.4,0.5,0.4,0.9c0,0.3-0.1,0.5-0.2,0.7c-0.1,0.2-0.3,0.3-0.5,0.3v0
	c0.3,0.1,0.5,0.2,0.6,0.4c0.1,0.2,0.2,0.4,0.2,0.7c0,0.4-0.2,0.8-0.5,1c-0.3,0.2-0.7,0.4-1.2,0.4H68V68.4L68,68.4z M69,70.2h0.6
	c0.3,0,0.5,0,0.6-0.1c0.1-0.1,0.2-0.2,0.2-0.4c0-0.2-0.1-0.3-0.2-0.4c-0.1-0.1-0.3-0.1-0.6-0.1H69L69,70.2L69,70.2z M69,71v1.2h0.6
	c0.3,0,0.5-0.1,0.6-0.2c0.1-0.1,0.2-0.3,0.2-0.5c0-0.4-0.3-0.6-0.8-0.6H69z"/>
<path d="M73.6,73v-4.6h1V73H73.6z"/>
<path d="M80.8,73h-1.1l-1.2-2l-0.4,0.3V73h-1v-4.6h1v2.1l0.4-0.5l1.3-1.6h1.1l-1.6,2.1L80.8,73z"/>
<path d="M85.3,73h-2.7v-4.6h2.7v0.8h-1.7v1h1.6V71h-1.6v1.2h1.7V73z"/>
<path d="M92.4,73h-1v-3.8h-1.3v-0.8h3.5v0.8h-1.3L92.4,73L92.4,73z"/>
<path d="M98.5,73l-0.3-1.1h-1.7L96.1,73H95l1.6-4.7h1.2l1.6,4.7H98.5L98.5,73z M97.9,71.1c-0.3-1-0.5-1.6-0.5-1.7
	c0-0.1-0.1-0.2-0.1-0.3c-0.1,0.3-0.3,0.9-0.6,2H97.9L97.9,71.1z"/>
<path d="M105.1,73H104l-1.1-1.8l-1.1,1.8h-1l1.5-2.4l-1.4-2.2h1.1l1,1.7l1-1.7h1.1l-1.5,2.3L105.1,73z"/>
<path d="M107,73v-4.6h1V73H107z"/>
</svg>
