<?xml version="1.0" encoding="utf-8"?>
<!-- Generator: Adobe Illustrator 25.4.1, SVG Export Plug-In . SVG Version: 6.00 Build 0)  -->
<svg version="1.0" id="katman_1" xmlns="http://www.w3.org/2000/svg" xmlns:xlink="http://www.w3.org/1999/xlink" x="0px" y="0px"
	 viewBox="0 0 1700 1200" style="enable-background:new 0 0 1700 1200;" xml:space="preserve">
<style type="text/css">
	.st0{fill:#FF0000;}
</style>
<g id="Layer_2">
	<g id="Layer_1-2">
		<path class="st0" d="M429,654.8h32.8V566l39.6-119.7h-31.9l-22.3,76.6h-0.6l-22.4-76.6h-34.8L429,566V654.8z M558.2,657.8
			c13.7,0.9,27.2-4.1,37-13.7c9.1-10.8,13.7-24.6,12.8-38.7V495.8c0.9-14.1-3.7-28-12.8-38.9c-9.8-9.6-23.3-14.6-37-13.7
			c-13.7-0.9-27.1,4.1-36.9,13.7c-9.1,10.8-13.8,24.7-12.9,38.8v109.7c-0.9,14.1,3.7,27.9,12.9,38.7
			C531.1,653.7,544.5,658.7,558.2,657.8z M541.1,493.6c0-13.6,5.7-20.5,17.2-20.5c11.5,0,17.2,6.9,17.2,20.5v113.8
			c0,13.7-5.7,20.6-17.2,20.6c-11.4,0-17.2-6.9-17.2-20.6V493.6z M677.7,657.8c13.5,0.9,26.7-4,36.4-13.6
			c8.9-10.9,13.4-24.8,12.4-38.9V446.3h-31.6v161.4c0.5,5.5-1,11.1-4.3,15.5c-3.2,3.3-7.7,5.1-12.4,4.8c-4.7,0.4-9.4-1.4-12.7-4.8
			c-3.3-4.5-4.9-10-4.4-15.5V446.3h-32.4v159.1c-0.9,14.1,3.6,28,12.5,38.9C650.9,653.8,664.2,658.7,677.7,657.8z M782.5,565.4h11.8
			c5.9-0.6,11.8,1.5,16,5.7c3.7,6,5.3,13,4.6,20v38.1c-0.3,5.5-0.2,11,0.2,16.5c0.4,3.3,1.2,6.4,2.4,9.5h33.4
			c-1.6-3.4-2.6-7.1-3-10.9c-0.5-4.8-0.7-9.6-0.6-14.4v-37c0.4-10.1-1.3-20.1-4.9-29.5c-3.2-7.2-9.5-12.6-17.2-14.6v-0.6
			c14.3-5.7,21.4-19.4,21.4-41.1v-12.9c1.1-13.1-3.1-26.1-11.6-36.2c-10.3-8.7-23.6-12.9-37-11.8h-48.3v208.5h32.8L782.5,565.4z
			 M782.5,476.1h14.9c4.8-0.4,9.5,1.5,12.7,5.1c3,4.9,4.4,10.6,3.9,16.4v16.1c0.6,6.1-1.1,12.3-4.9,17.2c-4,3.6-9.3,5.5-14.8,5.1
			h-11.9V476.1z M912.4,657.8c13.6,0.9,27-4.1,36.7-13.7c9.1-11,13.7-25,12.7-39.3c0.3-11.9-2.4-23.7-7.7-34.3
			c-7.5-12.4-17.1-23.3-28.3-32.4c-8.5-6.9-15.9-14.9-22.2-23.8c-4.1-6.3-6.3-13.7-6.4-21.2c0-13.3,5.5-19.9,16.4-19.9
			c4.6-0.3,9.1,1.5,12.2,4.9c3.2,4.5,4.7,10.1,4.2,15.6v10.7h31v-8.6c1-14-3.2-27.8-11.8-38.9c-9.3-9.5-22.3-14.5-35.6-13.6
			c-13.5-0.9-26.7,4-36.3,13.6c-8.9,10.7-13.4,24.4-12.5,38.3c-0.2,11.4,2.6,22.6,8.1,32.6c7.6,12.1,17.2,23,28.3,32
			c8.4,7,15.7,15.1,21.8,24.2c4,7,6.1,15,5.9,23.1c0.5,5.7-1,11.3-4.3,16c-3.3,3.5-7.9,5.3-12.7,5c-11.4,0-17.2-6.8-17.2-20.3v-14.2
			h-30.5v11.9c-0.9,14,3.4,27.9,12.2,38.9C885.8,653.8,899,658.8,912.4,657.8z M1006.2,654.8h32.8V476.1h34.3v-29.8H972v29.8h34.2
			V654.8z M1135.2,657.8c13.7,0.9,27.2-4.1,37-13.7c9.1-10.8,13.7-24.6,12.8-38.7V495.8c0.9-14.1-3.7-28-12.8-38.9
			c-21.2-18.3-52.6-18.3-73.8,0c-9.1,10.8-13.8,24.7-12.9,38.8v109.7c-0.9,14.1,3.7,27.9,12.9,38.7
			C1108.1,653.7,1121.5,658.7,1135.2,657.8z M1118,493.6c0-13.6,5.7-20.5,17.2-20.5c11.5,0,17.2,6.9,17.2,20.5v113.8
			c0,13.7-5.7,20.6-17.2,20.6c-11.4,0-17.2-6.9-17.2-20.6V493.6z M1239.7,565.4h11.3c5.9-0.6,11.8,1.5,16,5.7c3.7,6,5.3,13,4.6,20
			v38.1c-0.1,5.4,0.1,10.8,0.6,16.1c0.4,3.3,1.2,6.4,2.4,9.5h33.3c-1.5-3.5-2.5-7.1-2.9-10.9c-0.5-4.8-0.7-9.6-0.6-14.4v-36.6
			c0.4-10.1-1.3-20.1-4.9-29.5c-3.2-7.2-9.5-12.6-17.2-14.6v-0.6c14.4-5.7,21.5-19.4,21.4-41.1v-12.9c1.1-13.1-3.1-26.1-11.6-36.2
			c-10.3-8.7-23.6-12.9-37-11.8h-48.5v208.5h32.8L1239.7,565.4z M1239.7,476.1h14.9c4.8-0.4,9.4,1.5,12.6,5.1
			c3.1,4.9,4.6,10.6,4,16.4v16.1c0.6,6.1-1.1,12.3-4.9,17.2c-4,3.6-9.3,5.5-14.8,5.1h-11.9V476.1z M1352.3,654.8h32.8V566
			l39.6-119.7h-31.9l-22.3,76.6h-0.6l-22.4-76.6h-34.8l39.6,119.7L1352.3,654.8L1352.3,654.8z"/>
		<path class="st0" d="M1514.7,328.3H263.3v442H1549v-442H1514.7z M1514.7,736H296.8V362.6h1217.9V736z"/>
		<path class="st0" d="M1417.1,764.8c-5-0.1-9.9-1.3-14.3-3.5v77.2H185.3V465h95.4c-4.8-11.3-3.3-24.3,3.9-34.3H151v442h1286V761.2
			C1430.6,763.6,1423.9,764.8,1417.1,764.8z"/>
		<path class="st0" d="M303.8,748.7l-126,116.6l-24.2-24.2l126-116.6L303.8,748.7z M287.4,352.5L175.9,455.1l-24.2-24.2l111.5-102.6
			C263.2,328.4,287.4,352.5,287.4,352.5z"/>
	</g>
</g>
</svg>
