<?xml version="1.0" encoding="utf-8"?>
<!-- Generator: Adobe Illustrator 26.0.3, SVG Export Plug-In . SVG Version: 6.00 Build 0)  -->
<svg version="1.0" id="katman_1" xmlns="http://www.w3.org/2000/svg" xmlns:xlink="http://www.w3.org/1999/xlink" x="0px" y="0px"
	 viewBox="0 0 800 600" style="enable-background:new 0 0 800 600;" xml:space="preserve">
<style type="text/css">
	.st0{fill:#6AAB3D;}
	.st1{fill:#FFFFFF;}
</style>
<path class="st0" d="M286.7,87.6H513c57.7,0,104.4,46.8,104.4,104.4v215c0,57.7-46.8,104.4-104.4,104.4H286.7
	c-57.7,0-104.4-46.8-104.4-104.4v-215C182.2,134.4,229,87.6,286.7,87.6z"/>
<g>
	<path class="st1" d="M295,220.7h119.5c4,0,9-1.9,11.9-4.8l18.9-18.4H324.8C311.9,197.4,298,209.1,295,220.7z"/>
	<path class="st1" d="M311.9,262.5h59.7c4,0,9-1.9,11.9-4.8l18.9-18.4h-60.7C328.8,239.2,314.9,250.8,311.9,262.5z"/>
	<path class="st1" d="M404.5,346.7l-54.8,53.3c-6,5.8-13.9,9.7-22.9,9.7c-17.9,0-31.9-13.6-31.9-31c0-17.5,13.9-31,31.9-31h77.6"/>
	<path class="st1" d="M480.2,197.4c-9,0-17.9,3.9-23.9,9.7L316.9,342.9c3-1,6-1,10-1h82.6l93.6-92.1c6-5.8,9-13.6,9-22.3
		C513,211,498.1,197.4,480.2,197.4z"/>
	<path class="st1" d="M407.5,350.6L353.7,403c0,0-5,5.8-8,5.8H513c-3-34.9-33.8-62.1-70.7-62.1h-22.9h-9L407.5,350.6z"/>
</g>
</svg>
